<mxfile host="Electron" agent="Mozilla/5.0 (Windows NT 10.0; Win64; x64) AppleWebKit/537.36 (KHTML, like Gecko) draw.io/26.2.15 Chrome/134.0.6998.205 Electron/35.2.1 Safari/537.36" version="26.2.15">
  <diagram name="第 1 页" id="mg6wLWDaSiYKBbGN4zWl">
    <mxGraphModel dx="1213" dy="828" grid="1" gridSize="10" guides="1" tooltips="1" connect="1" arrows="1" fold="1" page="1" pageScale="1" pageWidth="827" pageHeight="1169" math="0" shadow="0">
      <root>
        <mxCell id="0" />
        <mxCell id="1" parent="0" />
        <mxCell id="RgBtzCxkIrrn3NLuinMr-1" value="值班员" style="swimlane;fontStyle=1;align=center;verticalAlign=top;childLayout=stackLayout;horizontal=1;startSize=38;horizontalStack=0;resizeParent=1;resizeParentMax=0;resizeLast=0;collapsible=0;marginBottom=0;labelBackgroundColor=none;fillColor=#B2C9AB;strokeColor=#788AA3;fontColor=#46495D;" vertex="1" parent="1">
          <mxGeometry x="20" y="20" width="72" height="57" as="geometry" />
        </mxCell>
        <mxCell id="RgBtzCxkIrrn3NLuinMr-2" style="line;strokeWidth=1;fillColor=none;align=left;verticalAlign=middle;spacingTop=-1;spacingLeft=3;spacingRight=3;rotatable=0;labelPosition=right;points=[];portConstraint=eastwest;strokeColor=#788AA3;labelBackgroundColor=none;fontColor=#46495D;" vertex="1" parent="RgBtzCxkIrrn3NLuinMr-1">
          <mxGeometry y="38" width="72" height="19" as="geometry" />
        </mxCell>
        <mxCell id="RgBtzCxkIrrn3NLuinMr-3" value="管理员" style="swimlane;fontStyle=1;align=center;verticalAlign=top;childLayout=stackLayout;horizontal=1;startSize=38;horizontalStack=0;resizeParent=1;resizeParentMax=0;resizeLast=0;collapsible=0;marginBottom=0;labelBackgroundColor=none;fillColor=#B2C9AB;strokeColor=#788AA3;fontColor=#46495D;" vertex="1" parent="1">
          <mxGeometry x="178" y="20" width="72" height="57" as="geometry" />
        </mxCell>
        <mxCell id="RgBtzCxkIrrn3NLuinMr-4" style="line;strokeWidth=1;fillColor=none;align=left;verticalAlign=middle;spacingTop=-1;spacingLeft=3;spacingRight=3;rotatable=0;labelPosition=right;points=[];portConstraint=eastwest;strokeColor=#788AA3;labelBackgroundColor=none;fontColor=#46495D;" vertex="1" parent="RgBtzCxkIrrn3NLuinMr-3">
          <mxGeometry y="38" width="72" height="19" as="geometry" />
        </mxCell>
        <mxCell id="RgBtzCxkIrrn3NLuinMr-5" value="设备" style="swimlane;fontStyle=1;align=center;verticalAlign=top;childLayout=stackLayout;horizontal=1;startSize=38.857142857142854;horizontalStack=0;resizeParent=1;resizeParentMax=0;resizeLast=0;collapsible=0;marginBottom=0;labelBackgroundColor=none;fillColor=#B2C9AB;strokeColor=#788AA3;fontColor=#46495D;" vertex="1" parent="1">
          <mxGeometry x="44" y="177" width="80" height="135.85714285714286" as="geometry" />
        </mxCell>
        <mxCell id="RgBtzCxkIrrn3NLuinMr-6" value="+编号" style="text;strokeColor=none;fillColor=none;align=left;verticalAlign=top;spacingLeft=4;spacingRight=4;overflow=hidden;rotatable=0;points=[[0,0.5],[1,0.5]];portConstraint=eastwest;labelBackgroundColor=none;fontColor=#46495D;" vertex="1" parent="RgBtzCxkIrrn3NLuinMr-5">
          <mxGeometry y="38.857142857142854" width="80" height="39" as="geometry" />
        </mxCell>
        <mxCell id="RgBtzCxkIrrn3NLuinMr-7" value="+类型" style="text;strokeColor=none;fillColor=none;align=left;verticalAlign=top;spacingLeft=4;spacingRight=4;overflow=hidden;rotatable=0;points=[[0,0.5],[1,0.5]];portConstraint=eastwest;labelBackgroundColor=none;fontColor=#46495D;" vertex="1" parent="RgBtzCxkIrrn3NLuinMr-5">
          <mxGeometry y="77.85714285714286" width="80" height="39" as="geometry" />
        </mxCell>
        <mxCell id="RgBtzCxkIrrn3NLuinMr-8" style="line;strokeWidth=1;fillColor=none;align=left;verticalAlign=middle;spacingTop=-1;spacingLeft=3;spacingRight=3;rotatable=0;labelPosition=right;points=[];portConstraint=eastwest;strokeColor=#788AA3;labelBackgroundColor=none;fontColor=#46495D;" vertex="1" parent="RgBtzCxkIrrn3NLuinMr-5">
          <mxGeometry y="116.85714285714286" width="80" height="19" as="geometry" />
        </mxCell>
        <mxCell id="RgBtzCxkIrrn3NLuinMr-9" value="检查项目" style="swimlane;fontStyle=1;align=center;verticalAlign=top;childLayout=stackLayout;horizontal=1;startSize=38.857142857142854;horizontalStack=0;resizeParent=1;resizeParentMax=0;resizeLast=0;collapsible=0;marginBottom=0;labelBackgroundColor=none;fillColor=#B2C9AB;strokeColor=#788AA3;fontColor=#46495D;" vertex="1" parent="1">
          <mxGeometry x="194" y="177" width="96" height="135.85714285714286" as="geometry" />
        </mxCell>
        <mxCell id="RgBtzCxkIrrn3NLuinMr-10" value="+名称" style="text;strokeColor=none;fillColor=none;align=left;verticalAlign=top;spacingLeft=4;spacingRight=4;overflow=hidden;rotatable=0;points=[[0,0.5],[1,0.5]];portConstraint=eastwest;labelBackgroundColor=none;fontColor=#46495D;" vertex="1" parent="RgBtzCxkIrrn3NLuinMr-9">
          <mxGeometry y="38.857142857142854" width="96" height="39" as="geometry" />
        </mxCell>
        <mxCell id="RgBtzCxkIrrn3NLuinMr-11" value="+标准" style="text;strokeColor=none;fillColor=none;align=left;verticalAlign=top;spacingLeft=4;spacingRight=4;overflow=hidden;rotatable=0;points=[[0,0.5],[1,0.5]];portConstraint=eastwest;labelBackgroundColor=none;fontColor=#46495D;" vertex="1" parent="RgBtzCxkIrrn3NLuinMr-9">
          <mxGeometry y="77.85714285714286" width="96" height="39" as="geometry" />
        </mxCell>
        <mxCell id="RgBtzCxkIrrn3NLuinMr-12" style="line;strokeWidth=1;fillColor=none;align=left;verticalAlign=middle;spacingTop=-1;spacingLeft=3;spacingRight=3;rotatable=0;labelPosition=right;points=[];portConstraint=eastwest;strokeColor=#788AA3;labelBackgroundColor=none;fontColor=#46495D;" vertex="1" parent="RgBtzCxkIrrn3NLuinMr-9">
          <mxGeometry y="116.85714285714286" width="96" height="19" as="geometry" />
        </mxCell>
        <mxCell id="RgBtzCxkIrrn3NLuinMr-13" value="巡检" style="curved=1;startArrow=none;endArrow=open;endSize=12;exitX=0.5;exitY=1;entryX=0.27;entryY=0;rounded=0;labelBackgroundColor=none;strokeColor=#788AA3;fontColor=default;" edge="1" parent="1" source="RgBtzCxkIrrn3NLuinMr-1" target="RgBtzCxkIrrn3NLuinMr-5">
          <mxGeometry relative="1" as="geometry">
            <Array as="points">
              <mxPoint x="56" y="140" />
            </Array>
          </mxGeometry>
        </mxCell>
        <mxCell id="RgBtzCxkIrrn3NLuinMr-14" value="1" style="edgeLabel;resizable=0;labelBackgroundColor=none;fontSize=12;align=right;verticalAlign=top;fontColor=#46495D;" vertex="1" parent="RgBtzCxkIrrn3NLuinMr-13">
          <mxGeometry x="-1" relative="1" as="geometry" />
        </mxCell>
        <mxCell id="RgBtzCxkIrrn3NLuinMr-15" value="1..*" style="edgeLabel;resizable=0;labelBackgroundColor=none;fontSize=12;align=left;verticalAlign=bottom;fontColor=#46495D;" vertex="1" parent="RgBtzCxkIrrn3NLuinMr-13">
          <mxGeometry x="1" relative="1" as="geometry" />
        </mxCell>
        <mxCell id="RgBtzCxkIrrn3NLuinMr-16" value="维护" style="curved=1;startArrow=none;endArrow=open;endSize=12;exitX=0;exitY=0.99;entryX=1;entryY=0;rounded=0;labelBackgroundColor=none;strokeColor=#788AA3;fontColor=default;" edge="1" parent="1" source="RgBtzCxkIrrn3NLuinMr-3" target="RgBtzCxkIrrn3NLuinMr-5">
          <mxGeometry relative="1" as="geometry">
            <Array as="points">
              <mxPoint x="145" y="140" />
            </Array>
          </mxGeometry>
        </mxCell>
        <mxCell id="RgBtzCxkIrrn3NLuinMr-17" value="1" style="edgeLabel;resizable=0;labelBackgroundColor=none;fontSize=12;align=right;verticalAlign=top;fontColor=#46495D;" vertex="1" parent="RgBtzCxkIrrn3NLuinMr-16">
          <mxGeometry x="-1" relative="1" as="geometry" />
        </mxCell>
        <mxCell id="RgBtzCxkIrrn3NLuinMr-18" value="1..*" style="edgeLabel;resizable=0;labelBackgroundColor=none;fontSize=12;align=left;verticalAlign=bottom;fontColor=#46495D;" vertex="1" parent="RgBtzCxkIrrn3NLuinMr-16">
          <mxGeometry x="1" relative="1" as="geometry" />
        </mxCell>
        <mxCell id="RgBtzCxkIrrn3NLuinMr-19" value="设置" style="curved=1;startArrow=none;endArrow=open;endSize=12;exitX=0.71;exitY=1;entryX=0.5;entryY=0;rounded=0;labelBackgroundColor=none;strokeColor=#788AA3;fontColor=default;" edge="1" parent="1" source="RgBtzCxkIrrn3NLuinMr-3" target="RgBtzCxkIrrn3NLuinMr-9">
          <mxGeometry relative="1" as="geometry">
            <Array as="points">
              <mxPoint x="242" y="140" />
            </Array>
          </mxGeometry>
        </mxCell>
        <mxCell id="RgBtzCxkIrrn3NLuinMr-20" value="1" style="edgeLabel;resizable=0;labelBackgroundColor=none;fontSize=12;align=right;verticalAlign=top;fontColor=#46495D;" vertex="1" parent="RgBtzCxkIrrn3NLuinMr-19">
          <mxGeometry x="-1" relative="1" as="geometry" />
        </mxCell>
        <mxCell id="RgBtzCxkIrrn3NLuinMr-21" value="1..*" style="edgeLabel;resizable=0;labelBackgroundColor=none;fontSize=12;align=left;verticalAlign=bottom;fontColor=#46495D;" vertex="1" parent="RgBtzCxkIrrn3NLuinMr-19">
          <mxGeometry x="1" relative="1" as="geometry" />
        </mxCell>
      </root>
    </mxGraphModel>
  </diagram>
</mxfile>
